<svg width="77" height="24" viewBox="0 0 77 24" fill="none" xmlns="http://www.w3.org/2000/svg">
<path d="M25.3589 13.191L24.0047 9.01478C24.0053 9.01666 24.0055 9.01861 24.0061 9.02049C24.0054 9.01831 24.0051 9.01613 24.0045 9.01396L24.0044 9.01358V9.01343L21.3159 0.725981C21.1689 0.289376 20.7641 -0.00364728 20.3002 3.42979e-05C19.835 0.00243859 19.4414 0.289751 19.2975 0.732367L16.7455 8.59876H8.6934L6.13673 0.731916C5.99295 0.289751 5.59937 0.00243859 5.13412 3.42979e-05H5.1285C4.67038 3.42979e-05 4.26494 0.291254 4.11629 0.732743L1.4352 9.01275L1.43483 9.01381V9.01403C1.43415 9.01614 1.43385 9.01824 1.43318 9.02034C1.43378 9.01846 1.434 9.01651 1.4346 9.01463L0.0753362 13.1911C-0.0246975 13.4973 -0.0251205 13.8273 0.0741277 14.1338C0.173376 14.4402 0.367175 14.7072 0.627626 14.8963L12.3641 23.4345C12.3658 23.4357 12.3678 23.4365 12.3695 23.4378C12.3745 23.4414 12.3794 23.4451 12.3845 23.4484C12.3797 23.4452 12.3752 23.4417 12.3705 23.4384L12.3704 23.4383C12.3712 23.4389 12.3721 23.4393 12.3729 23.4398L12.3749 23.441L12.3752 23.4412C12.3934 23.4538 12.4122 23.4654 12.4317 23.476C12.4344 23.4775 12.4368 23.4794 12.4395 23.4808L12.4397 23.4809C12.4413 23.4817 12.4428 23.4828 12.4445 23.4836C12.4457 23.4842 12.4471 23.4846 12.4483 23.4852C12.4492 23.4856 12.4502 23.4859 12.4511 23.4863C12.4533 23.4874 12.4557 23.488 12.4578 23.4892C12.468 23.494 12.4788 23.498 12.4893 23.5023C12.4991 23.5064 12.5086 23.5111 12.5187 23.5146L12.52 23.5152C12.5216 23.5158 12.5231 23.5166 12.5248 23.5172C12.5269 23.5179 12.529 23.5188 12.5311 23.5194L12.5335 23.52C12.5362 23.5209 12.539 23.5212 12.5416 23.522L12.5448 23.5227C12.5589 23.527 12.5735 23.5301 12.5881 23.5333C12.5938 23.5346 12.5993 23.5364 12.6051 23.5375L12.6075 23.5381C12.6094 23.5384 12.6111 23.5391 12.6131 23.5394C12.6162 23.5399 12.6192 23.5409 12.6223 23.5414C12.6248 23.5417 12.6273 23.5416 12.6298 23.542L12.6311 23.5421H12.6315C12.6592 23.546 12.6872 23.5488 12.7158 23.5488H12.7168C12.7455 23.5488 12.7735 23.546 12.8013 23.5421H12.8016L12.8029 23.542C12.8054 23.5416 12.808 23.5417 12.8105 23.5414C12.8137 23.5408 12.8167 23.5399 12.8198 23.5394C12.8217 23.5391 12.8234 23.5384 12.8253 23.5381L12.8277 23.5375C12.8336 23.5363 12.8392 23.5345 12.845 23.5333C12.8594 23.5301 12.8738 23.527 12.8878 23.5228L12.8907 23.5221C12.8935 23.5213 12.8964 23.5209 12.8991 23.5201C12.9 23.5198 12.9009 23.5197 12.9017 23.5195C12.9039 23.5188 12.906 23.5179 12.9081 23.5172C12.9097 23.5166 12.9112 23.5158 12.9129 23.5152L12.9141 23.5146C12.9248 23.5109 12.9349 23.5059 12.9453 23.5016C12.955 23.4976 12.9649 23.494 12.9743 23.4895C12.9767 23.4883 12.9791 23.4877 12.9814 23.4865L12.9842 23.4853C12.9855 23.4847 12.9869 23.4843 12.9881 23.4837C12.9899 23.4828 12.9915 23.4817 12.9932 23.4809L12.9932 23.4808C12.996 23.4794 12.9985 23.4774 13.0013 23.4759C13.0206 23.4653 13.0394 23.4538 13.0575 23.4413C13.0589 23.4403 13.0605 23.4396 13.062 23.4385L13.0632 23.4378C13.065 23.4365 13.067 23.4357 13.0687 23.4344L24.8069 14.896C25.0672 14.7069 25.261 14.4399 25.3602 14.1335C25.4594 13.8271 25.4589 13.4971 25.3589 13.191ZM20.3076 1.50242L22.6096 8.59876H18.0056L20.3076 1.50242ZM22.2065 9.79873L21.2672 11.0038L14.3389 19.8921L17.6162 9.79866H22.2065V9.79873ZM12.1465 23.1344C12.1465 23.1344 12.1465 23.1344 12.1465 23.1344C12.1471 23.1362 12.1481 23.1379 12.1487 23.1398C12.1481 23.1379 12.1471 23.1362 12.1465 23.1344ZM11.0954 19.8927L3.23217 9.79873H7.82279L11.0954 19.8927ZM5.12684 1.50234L7.43311 8.59876H2.82899L5.12684 1.50234ZM1.33225 13.9256C1.27682 13.8852 1.23561 13.8283 1.21453 13.763C1.19346 13.6976 1.19361 13.6273 1.21496 13.5621L2.22537 10.4574L9.62899 19.9614L1.33225 13.9256ZM12.3435 23.4186C12.3411 23.4167 12.3389 23.4147 12.3366 23.4127L12.3352 23.4115C12.3307 23.4077 12.3263 23.4039 12.3219 23.4C12.3134 23.3926 12.305 23.3849 12.2969 23.377L12.299 23.3787L12.3018 23.381C12.319 23.3975 12.3371 23.413 12.356 23.4272L12.3566 23.4278C12.3575 23.4284 12.3582 23.4293 12.3592 23.43C12.3539 23.4263 12.3485 23.4226 12.3435 23.4186ZM12.7167 21.0071L10.791 15.0675L9.0827 9.79873H16.356L12.7167 21.0071ZM13.1108 23.3999C13.1063 23.4038 13.102 23.4077 13.0974 23.4115L13.0958 23.4129C13.0935 23.4148 13.0913 23.4168 13.0891 23.4187C13.0841 23.4227 13.0787 23.4263 13.0735 23.4301C13.0744 23.4294 13.0752 23.4285 13.0762 23.4279L13.0766 23.4275C13.0955 23.4132 13.1135 23.3978 13.1306 23.3814C13.1312 23.3807 13.1321 23.3802 13.1327 23.3796C13.1336 23.3788 13.1346 23.3781 13.1354 23.3773C13.1274 23.3851 13.1192 23.3926 13.1108 23.3999ZM24.1022 13.9254L15.8067 19.9595L23.2127 10.4582L24.2191 13.5615C24.2405 13.6268 24.2408 13.6971 24.2198 13.7625C24.1988 13.8279 24.1576 13.8849 24.1022 13.9254Z" fill="#231F20"/>
<path d="M53.7385 5.7207H52.1026L52.1101 17.93H58.7361V16.4198H53.746L53.7385 5.7207Z" fill="#231F20"/>
<path d="M65.0414 15.7874C64.6287 16.2157 63.9459 16.644 63.0154 16.644C61.7697 16.644 61.2669 16.0279 61.2669 15.2239C61.2669 14.0143 62.1074 13.4357 63.8933 13.4357C64.231 13.4357 64.7713 13.4733 65.0489 13.5259V15.7874H65.0414ZM63.3455 8.38672C62.0248 8.38672 60.8092 8.85255 59.8637 9.64146L60.4415 10.6483C61.1094 10.2576 61.9273 9.86686 63.1054 9.86686C64.4486 9.86686 65.0414 10.5581 65.0414 11.7152V12.3087C64.7788 12.2561 64.2385 12.2186 63.9083 12.2186C61.0418 12.2186 59.586 13.2254 59.586 15.3291C59.586 17.215 60.7417 18.1617 62.4901 18.1617C63.6682 18.1617 64.8013 17.6207 65.1915 16.7416L65.4917 17.9363H66.6473V11.6851C66.6398 9.70908 65.7843 8.38672 63.3455 8.38672Z" fill="#231F20"/>
<path d="M71.9256 16.7002C71.3103 16.7002 70.77 16.6251 70.3648 16.4373V10.7947C70.9201 10.3289 71.6104 9.99077 72.4884 9.99077C74.0717 9.99077 74.6796 11.1103 74.6796 12.921C74.6796 15.4906 73.6965 16.7002 71.9256 16.7002ZM72.616 8.39041C71.1527 8.39041 70.3648 9.38969 70.3648 9.38969V7.81187L70.3573 5.72314H68.7589L68.7664 17.6319C69.5694 17.97 70.6649 18.1503 71.8581 18.1503C74.9122 18.1503 76.383 16.1968 76.383 12.8233C76.3755 10.1561 75.0172 8.39041 72.616 8.39041Z" fill="#231F20"/>
<path d="M35.9272 7.04532C37.3755 7.04532 38.3135 7.52618 38.9213 8.01456L39.6267 6.78987C38.6737 5.94836 37.383 5.49756 36.0023 5.49756C32.5205 5.49756 30.0817 7.62386 30.0817 11.914C30.0817 16.4071 32.7156 18.1577 35.7246 18.1577C37.2329 18.1577 38.5161 17.8046 39.3565 17.4514L39.319 12.6503V11.1401H34.8542V12.6503H37.7057L37.7432 16.2944C37.368 16.4822 36.7227 16.6325 35.8447 16.6325C33.4284 16.6325 31.8076 15.1072 31.8076 11.899C31.8001 8.63066 33.4735 7.04532 35.9272 7.04532Z" fill="#231F20"/>
<path d="M47.4479 5.71924H45.8495L45.857 7.7704V14.8556C45.857 16.8316 46.7125 18.154 49.1513 18.154C49.489 18.154 49.8191 18.1239 50.1343 18.0638V16.6287C49.9017 16.6663 49.6541 16.6813 49.3914 16.6813C48.0482 16.6813 47.4554 15.9901 47.4554 14.833V9.9493H50.1343V8.61191H47.4554L47.4479 5.71924Z" fill="#231F20"/>
<path d="M41.7847 17.9299H43.383V8.61328H41.7847V17.9299Z" fill="#231F20"/>
<path d="M41.7847 7.32838H43.383V5.72803H41.7847V7.32838Z" fill="#231F20"/>
</svg>
