<svg width="16" height="10" viewBox="0 0 16 10" fill="none" xmlns="http://www.w3.org/2000/svg">
<path d="M7.8385 2.57212C7.17013 2.76412 6.71394 2.90812 6.05618 3.10012C5.89704 3.14812 5.88643 3.16012 5.74851 2.98012C5.58938 2.77612 5.47268 2.64412 5.24989 2.52412C4.58152 2.15212 3.93437 2.26012 3.32965 2.70412C2.60824 3.23212 2.23692 4.01212 2.24753 4.98412C2.25814 5.94412 2.84164 6.73612 3.67975 6.86812C4.40117 6.97612 5.00588 6.68812 5.48329 6.07612C5.57877 5.94412 5.66364 5.80012 5.76973 5.63212C5.38781 5.63212 4.9104 5.63212 3.72219 5.63212C3.4994 5.63212 3.44635 5.47612 3.52062 5.27212C3.65854 4.90012 3.91315 4.27612 4.06168 3.96412C4.09351 3.89212 4.16777 3.77212 4.3269 3.77212C4.86797 3.77212 6.86246 3.77212 8.18859 3.77212C8.16738 4.09612 8.16738 4.42012 8.12494 4.74412C8.00824 5.60812 7.7218 6.40012 7.255 7.09612C6.49115 8.23612 5.4939 8.94412 4.23142 9.13612C3.19174 9.29212 2.22631 9.06412 1.37759 8.34412C0.592522 7.67212 0.146943 6.78412 0.0302435 5.68012C-0.107674 4.37212 0.231815 3.19612 0.932012 2.16412C1.68525 1.04812 2.6825 0.340119 3.90254 0.0881192C4.89979 -0.115881 5.85461 0.0161193 6.71394 0.676119C7.27622 1.09612 7.67936 1.67212 7.94459 2.36812C8.00824 2.47612 7.96581 2.53612 7.8385 2.57212Z" fill="#00ACD7"/>
<path d="M11.3501 9.20833C10.3846 9.18433 9.50409 8.87233 8.76146 8.15233C8.13553 7.54033 7.74299 6.76033 7.61568 5.83633C7.42472 4.48033 7.7536 3.28033 8.47502 2.21233C9.24948 1.06033 10.1831 0.460329 11.4455 0.208329C12.5277 -0.00767065 13.5461 0.112329 14.4691 0.820329C15.3072 1.46833 15.8271 2.34433 15.965 3.49633C16.1454 5.11633 15.7316 6.43633 14.745 7.56433C14.0448 8.36833 13.1854 8.87233 12.1988 9.10033C11.9123 9.16033 11.6259 9.17233 11.3501 9.20833ZM13.875 4.36033C13.8644 4.20433 13.8644 4.08433 13.8432 3.96433C13.6522 2.77633 12.6868 2.10433 11.6789 2.36833C10.6923 2.62033 10.0558 3.32833 9.82236 4.45633C9.6314 5.39233 10.0345 6.34033 10.7984 6.72433C11.3819 7.01233 11.9654 6.97633 12.5277 6.65233C13.3658 6.16033 13.822 5.39233 13.875 4.36033Z" fill="#00ACD7"/>
</svg>
