<svg width="91" height="23" viewBox="0 0 91 23" fill="none" xmlns="http://www.w3.org/2000/svg">
<path d="M64.8426 8.77432C63.5038 8.77432 62.5483 9.23418 62.0811 10.1063L61.8291 10.5768V9.00161H59.6503V18.5846H61.9446V12.8866C61.9446 11.5229 62.6796 10.7406 63.9606 10.7406C65.1838 10.7406 65.8821 11.5018 65.8821 12.8285V18.5899H68.1763V12.4109C68.1711 10.1328 66.9268 8.77432 64.8426 8.77432ZM53.7283 8.77432C51.0246 8.77432 49.3446 10.471 49.3446 13.209V14.5569C49.3446 17.1839 51.0404 18.8172 53.7651 18.8172C55.5869 18.8172 56.8679 18.1459 57.6711 16.761L56.2483 15.9365C55.6551 16.7346 54.7049 17.2315 53.7651 17.2315C52.3844 17.2315 51.5601 16.3752 51.5601 14.9375V14.5569H57.9599V12.9659C57.9599 10.4182 56.3008 8.77432 53.7283 8.77432ZM55.8756 13.0029H51.5601V12.7756C51.5601 11.1952 52.3319 10.3283 53.7283 10.3283C55.0723 10.3283 55.8756 11.1846 55.8756 12.6223V13.0029ZM90.9246 7.42118V5.58704H83.0023V7.42118H85.7796V16.7505H83.0023V18.5846H90.9246V16.7505H88.1473V7.42118H90.9246ZM30.8331 5.32275C27.2946 5.32275 25.0949 7.54275 25.0949 11.1212V13.0558C25.0949 16.6342 27.2946 18.8542 30.8331 18.8542C34.3716 18.8542 36.5714 16.6342 36.5714 13.0558V11.1212C36.5714 7.54804 34.3716 5.32275 30.8331 5.32275ZM34.2036 13.1879C34.2036 15.5612 32.9751 16.9249 30.8331 16.9249C28.6911 16.9249 27.4626 15.5612 27.4626 13.1879V10.989C27.4626 8.61575 28.6911 7.25204 30.8331 7.25204C32.9751 7.25204 34.2036 8.61575 34.2036 10.989V13.1879ZM43.7691 8.77432C42.5669 8.77432 41.5274 9.27647 40.9814 10.1169L40.7346 10.4975V9.00161H38.5559V21.8829H40.8501V17.2156L41.0969 17.5803C41.6114 18.352 42.6194 18.8119 43.7901 18.8119C45.7641 18.8119 47.7591 17.5116 47.7591 14.6045V12.9765C47.7591 10.8886 46.5254 8.77432 43.7691 8.77432ZM45.4649 14.4935C45.4649 16.0369 44.5671 16.9989 43.1286 16.9989C41.7846 16.9989 40.8501 15.984 40.8501 14.5305V13.0928C40.8501 11.618 41.7951 10.5873 43.1496 10.5873C44.5776 10.5873 45.4701 11.5493 45.4701 13.0928V14.4935H45.4649ZM74.5026 5.59233L69.8721 18.5899H72.1978L73.0851 15.8043H78.4033L78.4138 15.8308L79.2906 18.5899H81.6163L76.9858 5.59233H74.5026ZM73.6626 13.9649L75.7468 7.39475L77.8101 13.9649H73.6626Z" fill="black"/>
<path d="M20.6114 9.21829C21.1154 7.66429 20.9474 6.031 20.1336 4.60915C18.9051 2.46314 16.4691 1.37429 14.0646 1.887C12.9831 0.671286 11.4921 0 9.85937 0C7.39712 0 5.24462 1.58043 4.48337 3.93257C2.89262 4.27086 1.57487 5.23286 0.761117 6.65472C-0.467383 8.80072 -0.189133 11.47 1.45412 13.3094C0.950116 14.8634 1.11812 16.4967 1.93187 17.9186C3.16037 20.0646 5.59637 21.1534 8.00087 20.6407C9.08237 21.8564 10.5734 22.5277 12.2061 22.5277C14.6684 22.5277 16.8209 20.9473 17.5821 18.5952C19.1729 18.2569 20.4906 17.2949 21.3044 15.873C22.5329 13.727 22.2546 11.0577 20.6114 9.21829ZM12.2009 21.053C11.2139 21.053 10.2636 20.7042 9.51812 20.0752C9.54962 20.054 9.61262 20.0223 9.65462 20.0012L14.1119 17.4112C14.3429 17.279 14.4794 17.0412 14.4794 16.7716V10.4499L16.3641 11.544C16.3904 11.5599 16.4009 11.581 16.4009 11.5969V16.835C16.3956 19.1607 14.5161 21.053 12.2009 21.053ZM3.19712 17.1786C2.70362 16.317 2.52512 15.3127 2.69837 14.3507C2.72987 14.3719 2.78762 14.4036 2.82962 14.43L7.28687 17.02C7.51787 17.1522 7.79087 17.1522 8.01662 17.02L13.4556 13.8592V16.0527C13.4556 16.0844 13.4399 16.1056 13.4294 16.1109L8.92486 18.7273C6.91936 19.8902 4.35212 19.1977 3.19712 17.1786ZM2.02112 7.38943C2.51462 6.52786 3.29162 5.87243 4.20512 5.53943C4.20512 5.57643 4.20512 5.64515 4.20512 5.69272V10.8727C4.20512 11.137 4.34162 11.3749 4.57262 11.5123L10.0116 14.6732L8.12162 15.7673C8.09537 15.7832 8.06912 15.7779 8.05861 15.7726L3.55412 13.1562C1.55387 11.9933 0.866117 9.40858 2.02112 7.38943ZM17.4929 11.0154L12.0539 7.85458L13.9386 6.76043C13.9649 6.74458 13.9911 6.74458 14.0016 6.75515L18.5061 9.37158C20.5064 10.5344 21.1941 13.1244 20.0391 15.1383C19.5456 15.9999 18.7686 16.6553 17.8551 16.9883C17.8551 16.9513 17.8551 16.8826 17.8551 16.835V11.655C17.8604 11.3854 17.7186 11.1476 17.4929 11.0154ZM19.3671 8.17701C19.3356 8.15586 19.2779 8.12415 19.2359 8.09772L14.7786 5.50772C14.5476 5.37558 14.2746 5.37558 14.0489 5.50772L8.60987 8.66858V6.48029C8.60987 6.44858 8.62562 6.42743 8.63612 6.42215L13.1406 3.80572C13.7969 3.42515 14.5214 3.24015 15.2301 3.24015C16.6791 3.24015 18.0914 3.996 18.8684 5.34915C19.3566 6.20543 19.5351 7.20972 19.3671 8.17701ZM7.58612 12.0779L5.70137 10.9837C5.67512 10.9679 5.66462 10.9467 5.66462 10.9309V5.69272C5.66462 4.56686 6.10037 3.50972 6.89312 2.71157C7.68587 1.91343 8.73587 1.47471 9.85412 1.47471C10.8411 1.47471 11.7914 1.82357 12.5369 2.45257C12.5054 2.47372 12.4424 2.50543 12.4004 2.52657L7.94312 5.11658C7.71212 5.24872 7.57562 5.48657 7.57562 5.75615L7.58612 12.0779ZM8.60987 9.85786L11.0301 8.45186L13.4504 9.85786V12.6699L11.0301 14.0759L8.60987 12.6699V9.85786Z" fill="black"/>
</svg>
