<svg width="105" height="15" viewBox="0 0 105 15" fill="none" xmlns="http://www.w3.org/2000/svg">
<path d="M99.0232 0.0585938C99.0232 0.0585938 99.6638 0.0585938 99.9314 0.258039C99.9314 0.258039 100.2 0.457484 100.407 1.06678L104.887 14.3698C104.887 14.3698 104.949 14.5376 104.898 14.6752C104.898 14.6752 104.847 14.8113 104.618 14.8113H102.719C102.719 14.8113 102.492 14.8113 102.359 14.7591C102.359 14.7591 102.223 14.7068 102.141 14.4757L101.233 11.597H95.9879L95.0797 14.4537C95.0797 14.4537 95.0175 14.6435 94.904 14.7274C94.904 14.7274 94.7905 14.8113 94.5432 14.8113H92.6431C92.6431 14.8113 92.416 14.8113 92.3539 14.6752C92.3539 14.6752 92.2931 14.5376 92.3539 14.3698L96.8136 1.06678C96.8136 1.06678 96.9176 0.751824 97.0204 0.563394C97.0204 0.563394 97.1244 0.373577 97.2785 0.269055C97.2785 0.269055 97.4339 0.163144 97.6407 0.110869C97.6407 0.110869 97.8461 0.0585938 98.1353 0.0585938H99.0232ZM98.6313 2.89608H98.5286L97.6812 5.81473L96.6082 9.40458H100.572L99.4989 5.87661L98.6313 2.89608Z" fill="black"/>
<path d="M56.3858 0.0986328C56.3858 0.0986328 56.675 0.0986328 56.7777 0.172911C56.7777 0.172911 56.8805 0.245802 56.8805 0.540141L56.8804 5.98952H63.3025V0.540141C63.3025 0.540141 63.3025 0.266418 63.4174 0.182539C63.4174 0.182539 63.5309 0.0986328 63.7782 0.0986328H65.3513C65.3513 0.0986328 65.6405 0.0986328 65.7338 0.172911C65.7338 0.172911 65.827 0.245802 65.827 0.540141V14.3699C65.827 14.3699 65.827 14.6642 65.7338 14.7385C65.7338 14.7385 65.6405 14.8114 65.3513 14.8114H63.7782C63.7782 14.8114 63.5309 14.8114 63.4174 14.7275C63.4174 14.7275 63.3025 14.6436 63.3025 14.3699V8.19431H56.8804V14.3699C56.8805 14.3699 56.8805 14.6642 56.7777 14.7385C56.7777 14.7385 56.675 14.8114 56.3858 14.8114H54.8181C54.8181 14.8114 54.5911 14.8114 54.4681 14.7275C54.4681 14.7275 54.3438 14.6436 54.3438 14.3699L54.3438 0.540141C54.3438 0.540141 54.3438 0.266418 54.4681 0.182539C54.4681 0.182539 54.5911 0.0986328 54.8181 0.0986328H56.3858Z" fill="black"/>
<path d="M50.0937 0.0986328C50.0937 0.0986328 50.3207 0.0986328 50.3937 0.182539C50.3937 0.182539 50.4653 0.267806 50.4653 0.498882V1.95268C50.4653 1.95268 50.4653 2.16314 50.3937 2.24702C50.3937 2.24702 50.3207 2.33092 50.0937 2.33092H46.1718V14.3699C46.1718 14.3699 46.1718 14.6642 46.0786 14.7385C46.0786 14.7385 45.9853 14.8114 45.6961 14.8114H44.0825C44.0825 14.8114 43.8352 14.8114 43.7217 14.7275C43.7217 14.7275 43.6081 14.6436 43.6081 14.3699V2.33092H39.7673C39.7673 2.33092 39.5403 2.33092 39.4781 2.24702C39.4781 2.24702 39.416 2.16314 39.416 1.95268L39.416 0.498882C39.416 0.498882 39.416 0.267806 39.4781 0.182539C39.4781 0.182539 39.5403 0.0986328 39.7673 0.0986328H50.0937Z" fill="black"/>
<path d="M23.9398 0.0110988C27.972 0.0110988 31.2382 3.33519 31.2382 7.43896C31.2382 11.54 27.972 14.8668 23.9398 14.8668H7.85181C7.27656 14.8668 6.81036 14.3924 6.81036 13.8069C6.81036 13.2214 7.27656 12.747 7.85181 12.747H11.6005C12.173 12.747 12.6392 12.2725 12.6392 11.687C12.6392 11.1016 12.173 10.6271 11.6005 10.6271H10.7662C10.191 10.6271 9.72479 10.1526 9.72479 9.56716C9.72479 8.9817 10.191 8.50722 10.7662 8.50722H13.2664C13.8447 8.50558 14.2934 8.02581 14.3077 7.44729C14.3077 6.86183 13.8415 6.38735 13.2663 6.38735H4.51753C3.94227 6.38735 3.47607 5.91288 3.47607 5.32742C3.47607 4.74196 3.94227 4.26748 4.51753 4.26748H10.9736C11.5519 4.26585 12.0005 3.78607 12.0149 3.20755C12.0149 2.62209 11.5487 2.14762 10.9734 2.14762H9.51759C8.94234 2.14762 8.47614 1.67314 8.47614 1.08768C8.47614 0.50222 8.94234 0 9.51759 0L23.9398 0.0110988ZM22.7729 2.48613C20.5319 2.48613 18.7189 4.33408 18.7189 6.6121V8.26305C18.7189 10.5438 20.5319 12.389 22.7729 12.389C25.0112 12.389 26.827 10.5438 26.827 8.26305V6.6121C26.827 4.33408 25.0112 2.48613 22.7729 2.48613ZM24.1579 6.38735C24.6977 6.38735 25.1367 6.83408 25.1367 7.38347V7.51111C25.1367 8.0605 24.6977 8.50722 24.1579 8.50722H21.1153C20.5755 8.50722 20.1366 8.0605 20.1366 7.51111V7.38347C20.1366 6.83408 20.5755 6.38735 21.1153 6.38735H24.1579Z" fill="black"/>
<path d="M4.58021 12.7471C5.12275 12.7471 5.55896 13.191 5.55896 13.7432V13.8708C5.55896 14.4202 5.12275 14.8669 4.58021 14.8669H0.978748C0.438937 14.8669 0 14.4202 0 13.8708V13.7432C0 13.191 0.438937 12.7471 0.978748 12.7471H4.58021Z" fill="black"/>
<path d="M80.4237 0.0849609C80.4238 0.0849609 80.6913 0.0849609 80.7643 0.201887C80.7643 0.201887 80.8359 0.317425 80.8359 0.569117V1.895C80.8359 1.895 80.8359 2.16873 80.7643 2.26362C80.7643 2.26362 80.6913 2.35852 80.4238 2.35852H74.9315C74.9315 2.35852 74.1463 2.35852 73.826 2.71476C73.826 2.71476 73.5071 3.07236 73.5071 3.74356V5.94836H79.7413C79.7413 5.94836 80.0102 5.94836 80.0832 6.05427C80.0832 6.05427 80.1548 6.15879 80.1548 6.45177V7.60574C80.1548 7.60574 80.1548 7.85743 80.0832 7.97161C80.0832 7.97161 80.0102 8.08712 79.7413 8.08712H73.5071V11.1584C73.5071 11.1584 73.5071 11.831 73.8477 12.1776C73.8477 12.1776 74.1882 12.5256 74.9315 12.5256H80.5467C80.5467 12.5256 80.8359 12.5256 80.9089 12.6301C80.9089 12.6301 80.9805 12.7347 80.9805 13.029V14.3288C80.9805 14.3288 80.9805 14.5598 80.8981 14.685C80.8981 14.685 80.8157 14.8115 80.5467 14.8115H74.6626C74.6626 14.8115 73.5679 14.8115 72.8652 14.4966C72.8652 14.4966 72.1624 14.1816 71.7381 13.6562C71.7381 13.6562 71.3137 13.1308 71.1489 12.4582C71.1489 12.4582 70.9826 11.787 70.9826 11.0512V3.86737C70.9826 3.86737 70.9826 3.13152 71.1786 2.44931C71.1786 2.44931 71.3759 1.76573 71.8205 1.24032C71.8205 1.24032 72.2651 0.716287 72.9679 0.399944C72.9679 0.399944 73.672 0.0849609 74.6626 0.0849609H80.4237Z" fill="black"/>
<path d="M87.6873 0.0986328C87.6873 0.0986328 87.9751 0.0986328 88.0792 0.172911C88.0792 0.172911 88.1819 0.245802 88.1819 0.540141V14.3699C88.1819 14.3699 88.1819 14.6642 88.0792 14.7385C88.0792 14.7385 87.9751 14.8114 87.6873 14.8114H86.1196C86.1196 14.8114 85.8723 14.8114 85.7588 14.7275C85.7588 14.7275 85.6453 14.6436 85.6453 14.3699V0.540141C85.6453 0.540141 85.6453 0.266418 85.7588 0.182539C85.7588 0.182539 85.8723 0.0986328 86.1196 0.0986328H87.6873Z" fill="black"/>
<path d="M6.24872 0.027832C6.78853 0.027832 7.22474 0.474557 7.22474 1.02395V1.15436C7.22474 1.70375 6.78853 2.1477 6.24872 2.1477H2.2274C1.68759 2.1477 1.24866 1.70375 1.24866 1.15436V1.02395C1.24866 0.474557 1.68759 0.027832 2.2274 0.027832H6.24872Z" fill="black"/>
<path d="M7.49737 8.50732C8.03718 8.50732 8.47611 8.95405 8.47611 9.50344V9.63108C8.47611 10.1805 8.03718 10.6272 7.49737 10.6272H5.28905C4.74924 10.6272 4.3103 10.1805 4.3103 9.63108V9.50344C4.3103 8.95405 4.74924 8.50732 5.28905 8.50732H7.49737Z" fill="black"/>
</svg>
